<?xml version="1.0" encoding="UTF-8"?><svg id="Capa_2" xmlns="http://www.w3.org/2000/svg" viewBox="0 0 755.27 755.27"><g id="Capa_1-2"><g><rect width="755.27" height="755.27" fill="#f9f9f9"/><g><polygon points="588.45 456.95 236.61 456.95 312.45 325.59 512.61 325.59 588.45 456.95" fill="#fff9e1" stroke="#000" stroke-miterlimit="10"/><polygon points="512.61 325.59 312.45 325.59 412.53 152.25 512.61 325.59" fill="#eff" stroke="#000" stroke-miterlimit="10"/><text transform="translate(391.44 212.84)" font-family="Inter-Medium, Inter" font-size="12"><tspan x="0" y="0">VIS</tspan><tspan x="19.35" y="0" letter-spacing="-.09em">T</tspan><tspan x="26.13" y="0" letter-spacing="0em">A</tspan><tspan x="34.46" y="0">S</tspan></text><text transform="translate(358.55 347.79)" font-family="Inter-Medium, Inter" font-size="12"><tspan x="0" y="0">CONTRO</tspan><tspan x="51.77" y="0" letter-spacing=".04em">L</tspan><tspan x="58.98" y="0" letter-spacing="0em">ADORES</tspan></text><polygon points="672.79 603.03 152.27 603.03 236.61 456.95 588.45 456.95 672.79 603.03" fill="#f6e6ff" stroke="#000" stroke-miterlimit="10"/><text transform="translate(380 480.99)" font-family="Inter-Medium, Inter" font-size="12"><tspan x="0" y="0">RECURSOS</tspan></text><line x1="224.23" y1="456.95" x2="68.96" y2="456.95" fill="none" stroke="#000" stroke-miterlimit="10" stroke-width=".5"/><line x1="399.71" y1="152.24" x2="68.96" y2="152.24" fill="none" stroke="#000" stroke-miterlimit="10" stroke-width=".5"/><line x1="141.42" y1="603.03" x2="68.96" y2="603.03" fill="none" stroke="#000" stroke-miterlimit="10" stroke-width=".5"/><text transform="translate(88.04 353.72) rotate(-90)" font-family="Inter-Medium, Inter" font-size="11"><tspan x="0" y="0">PRESEN</tspan><tspan x="42.68" y="0" letter-spacing="-.09em">T</tspan><tspan x="48.89" y="0" letter-spacing="-.03em">A</tspan><tspan x="56.21" y="0">CIONAL</tspan></text><text transform="translate(87.89 590.55) rotate(-90)" font-family="Inter-Medium, Inter" font-size="11"><tspan x="0" y="0">RECURSOS EXTERNOS</tspan></text><text transform="translate(392.22 246.32)" font-family="Inter-Regular, Inter" font-size="11"><tspan x="0" y="0">páginas</tspan></text><text transform="translate(377.07 271.38)" font-family="Inter-Regular, Inter" font-size="11"><tspan x="0" y="0">componen</tspan><tspan x="54.81" y="0" letter-spacing="0em">t</tspan><tspan x="58.75" y="0">es</tspan></text><text transform="translate(318.57 391.27)" font-family="Inter-Regular, Inter" font-size="11"><tspan x="0" y="0">cus</tspan><tspan x="18.28" y="0" letter-spacing="0em">t</tspan><tspan x="22.22" y="0">om hooks</tspan></text><text transform="translate(442.63 391.27)" font-family="Inter-Regular, Inter" font-size="11"><tspan x="0" y="0">utilidades</tspan></text><text transform="translate(387.41 295.79)" font-family="Inter-Regular, Inter" font-size="11"><tspan x="0" y="0">utilidades</tspan></text><text transform="translate(308.98 530.13)" font-family="Inter-Regular, Inter" font-size="11"><tspan x="0" y="0" letter-spacing="-.02em">r</tspan><tspan x="3.91" y="0">eposi</tspan><tspan x="31.94" y="0" letter-spacing="0em">t</tspan><tspan x="35.87" y="0">orios</tspan></text><text transform="translate(438.85 529.99)" font-family="Inter-Regular, Inter" font-size="11"><tspan x="0" y="0">modelos de da</tspan><tspan x="76.73" y="0" letter-spacing="0em">t</tspan><tspan x="80.67" y="0">os</tspan></text></g></g></g></svg>