<?xml version="1.0" encoding="utf-8"?>
<!-- Generator: Adobe Illustrator 16.0.0, SVG Export Plug-In . SVG Version: 6.00 Build 0)  -->
<!DOCTYPE svg PUBLIC "-//W3C//DTD SVG 1.1//EN" "http://www.w3.org/Graphics/SVG/1.1/DTD/svg11.dtd">
<svg version="1.1" id="Capa_1" xmlns="http://www.w3.org/2000/svg" xmlns:xlink="http://www.w3.org/1999/xlink" x="0px" y="0px"
	 width="500px" height="200px" viewBox="0 0 500 200" enable-background="new 0 0 500 200" xml:space="preserve">
<g>
	<path fill="#FFFFFF" d="M92.741,144.561H66.526L33.314,86.658v57.902H8.5V47.973h26.214l33.211,57.901V47.973H92.74L92.741,144.561
		L92.741,144.561z"/>
	<path fill="#FFFFFF" d="M171.448,143.41c-17.856,1.615-33.934,2.549-48.355,2.549c-6.32,0-11.304-1.887-15.079-5.663
		c-3.776-3.774-5.663-8.634-5.663-15.079V92.13c0-6.872,1.919-12.29,5.886-16.256c3.839-3.839,9.258-5.76,16.255-5.76h27.614
		c6.873,0,12.291,1.92,16.256,5.76c3.84,3.966,5.885,9.384,5.885,16.256v25.515h-47.78v5.599c0,1.399,0.466,2.44,1.399,3.373
		c0.933,0.934,2.099,1.399,3.499,1.399c9.161,0,22.438-0.574,40.083-1.975V143.41z M132.064,87.357
		c-3.732,0-5.598,1.867-5.598,5.473v7.572h23.54V92.83c0-3.606-1.866-5.473-5.473-5.473H132.064z"/>
	<path fill="#FFFFFF" d="M254.691,30.813h27.488l-45.894,65.515l31.687,48.23H240.36l-19.342-30.287l-38.506,56.09h-27.739
		l51.101-74.033l-31.112-48.355h27.549l18.707,30.413L254.691,30.813z"/>
	<path fill="#FFFFFF" d="M320.341,144.561c-8.95,0.933-17.563,1.398-26.089,1.398c-6.445,0-11.305-1.887-15.08-5.663
		c-3.773-3.774-5.662-8.634-5.662-15.079V90.156h-8.396V71.389h8.396l2.799-16.543h21.316v16.543h17.368v18.768h-17.368v31.689
		c0,1.398,0.466,2.69,1.398,3.373c0.934,0.932,1.975,1.398,3.375,1.398h17.941L320.341,144.561L320.341,144.561z"/>
	<path fill="#FFFFFF" d="M398.504,78.386c0,7.805-3.309,14.612-9.927,20.296c-2.202,1.698-4.242,3.396-6.616,5.218l-29.959,21.315
		h46.502v19.343h-74.82v-26.09l49.881-36.01v-6.873c0-5.473-2.799-8.271-8.396-8.271h-38.686V47.973h44.283
		c9.795,0,16.597,2.154,21.153,6.585c4.306,4.307,6.585,11.358,6.585,21.029V78.386L398.504,78.386z"/>
	<path fill="#FFFFFF" d="M466.56,47.973h24.94v70.498c0,9.545-2.279,16.598-6.585,20.903c-4.308,4.558-11.357,6.585-21.153,6.585
		h-31.688c-9.547,0-16.6-2.027-21.154-6.585c-4.307-4.306-6.585-11.358-6.585-20.903V47.973h24.94v70.498
		c0,5.598,2.799,8.146,8.396,8.146h20.741c5.349,0,8.146-2.55,8.146-8.146V47.973H466.56z"/>
</g>
</svg>
