<?xml version="1.0" encoding="utf-8"?>
<!-- Generator: Adobe Illustrator 16.0.0, SVG Export Plug-In . SVG Version: 6.00 Build 0)  -->
<!DOCTYPE svg PUBLIC "-//W3C//DTD SVG 1.1//EN" "http://www.w3.org/Graphics/SVG/1.1/DTD/svg11.dtd">
<svg version="1.1" id="Capa_1" xmlns="http://www.w3.org/2000/svg" xmlns:xlink="http://www.w3.org/1999/xlink" x="0px" y="0px"
	 width="500px" height="500px" viewBox="0 0 500 500" enable-background="new 0 0 500 500" xml:space="preserve">
<g>
	<path display="none" fill-rule="evenodd" clip-rule="evenodd" fill="#404040" d="M438.803,196.089
		c0.032-5.183,0.17-10.356-0.309-15.546c-0.643-6.941-1.499-13.834-2.807-20.677c-4.175-21.834-12.07-42.251-23.512-61.285
		c-11.072-18.42-24.936-34.477-41.488-48.178c-17.897-14.814-37.865-25.952-59.872-33.436c-16.516-5.617-33.515-8.75-50.896-9.711
		c-9.733-0.539-19.471-0.206-29.191,0.819c-7.565,0.796-15.055,1.959-22.46,3.639c-16.125,3.66-31.521,9.307-46.154,17.046
		c-8.961,4.739-17.534,10.086-25.604,16.199c-11.738,8.89-22.345,18.991-31.766,30.329C92.821,89.634,83.245,105.4,75.969,122.573
		c-5.709,13.476-9.717,27.444-12.181,41.861c-1.053,6.16-1.94,12.367-2.153,18.6c-0.208,6.05-0.907,12.094-0.292,18.187
		c0.357,3.541,0.252,7.128,0.537,10.699c0.552,6.954,1.524,13.834,2.848,20.673c4.666,24.092,13.783,46.388,27.208,66.904
		c9.207,14.07,20.109,26.688,32.709,37.861c11.646,10.328,24.319,19.13,38.127,26.279c2.045,1.059,3.345,2.492,4.431,4.41
		c4.407,7.783,8.877,15.533,13.352,23.279c11.186,19.364,22.389,38.72,33.58,58.082c7.743,13.397,15.52,26.778,23.202,40.211
		c5.808,10.156,20.375,9.597,25.844-0.236c7.306-13.13,14.983-26.055,22.499-39.068c9.662-16.731,19.325-33.464,28.984-50.197
		c6.394-11.08,12.785-22.159,19.163-33.247c0.685-1.188,1.521-2.082,2.805-2.724c6.167-3.087,12.099-6.594,17.832-10.423
		c13.605-9.086,25.908-19.661,36.797-31.906c10.823-12.174,19.962-25.472,27.379-39.957c6.056-11.824,10.735-24.181,14.188-37.009
		c3.167-11.762,5.048-23.744,5.925-35.873C439.063,204.703,438.803,200.387,438.803,196.089z"/>
	<path fill-rule="evenodd" clip-rule="evenodd" fill="#404040" d="M438.803,196.089c0,4.298,0.26,8.614-0.05,12.89
		c-0.877,12.128-2.758,24.111-5.925,35.873c-3.453,12.828-8.133,25.185-14.188,37.009c-7.417,14.485-16.556,27.783-27.379,39.957
		c-10.889,12.245-23.191,22.82-36.797,31.906c-5.733,3.829-11.665,7.336-17.832,10.423c-1.284,0.642-2.12,1.536-2.805,2.724
		c-6.378,11.088-12.77,22.167-19.163,33.247c-9.659,16.733-19.322,33.466-28.984,50.197c-7.516,13.014-15.193,25.938-22.499,39.068
		c-5.47,9.833-20.036,10.393-25.844,0.236c-7.682-13.433-15.458-26.813-23.202-40.211c-11.19-19.362-22.394-38.718-33.58-58.082
		c-4.475-7.746-8.945-15.496-13.352-23.279c-1.086-1.918-2.385-3.352-4.431-4.41c-13.809-7.149-26.481-15.951-38.127-26.279
		c-12.601-11.174-23.503-23.791-32.709-37.861c-13.425-20.517-22.542-42.813-27.208-66.904c-1.324-6.839-2.296-13.719-2.848-20.673
		c-0.284-3.571-0.18-7.159-0.537-10.699c-0.615-6.092,0.084-12.136,0.292-18.187c0.213-6.233,1.1-12.439,2.153-18.6
		c2.464-14.417,6.472-28.385,12.181-41.861c7.276-17.173,16.852-32.938,28.774-47.286c9.421-11.338,20.028-21.439,31.766-30.329
		c8.071-6.112,16.643-11.46,25.604-16.199c14.633-7.739,30.028-13.386,46.154-17.046c7.405-1.68,14.896-2.843,22.46-3.639
		c9.721-1.024,19.458-1.358,29.191-0.819c17.381,0.961,34.38,4.094,50.896,9.711c22.007,7.484,41.975,18.622,59.872,33.436
		c16.553,13.702,30.416,29.758,41.488,48.178c11.441,19.034,19.337,39.451,23.512,61.285c1.308,6.842,2.164,13.735,2.807,20.677
		C438.973,185.732,438.835,190.906,438.803,196.089z"/>
</g>
<path fill="#67C0B5" d="M170.286,107.44l-28.611,194.851h216.65L324.229,107.44H170.286z M195.143,140.638
	c-5.452,0-9.881-3.532-9.881-7.888c0-4.36,4.429-7.896,9.881-7.896s9.873,3.536,9.873,7.896
	C205.015,137.106,200.595,140.638,195.143,140.638z M297.998,140.638c-5.452,0-9.881-3.532-9.881-7.888
	c0-4.36,4.429-7.896,9.881-7.896c5.453,0,9.872,3.536,9.872,7.896C307.87,137.106,303.451,140.638,297.998,140.638z"/>
<path opacity="0.5" fill="#67C0B5" d="M324.229,107.44H281.75c4.245,48.267,2.63,176.133-135.572,164.2l-4.503,30.65h182.554V107.44
	z M297.998,140.638c-5.452,0-9.881-3.532-9.881-7.888c0-4.36,4.429-7.896,9.881-7.896c5.453,0,9.872,3.536,9.872,7.896
	C307.87,137.106,303.451,140.638,297.998,140.638z"/>
<path fill="#FCF9EF" d="M298.488,136.967c-1.842,0-3.354-1.472-3.394-3.322c-0.004-0.168-0.453-17.214-6.32-33.934
	c-7.552-21.521-20.146-32.434-37.434-32.434c-17.483,0-31.738,11.037-42.369,32.804c-8.192,16.774-10.989,33.854-11.017,34.024
	c-0.296,1.852-2.038,3.113-3.889,2.817c-1.852-0.295-3.113-2.035-2.818-3.886c0.116-0.732,2.952-18.124,11.553-35.797
	c11.702-24.045,28.487-36.754,48.539-36.754c20.236,0,35.414,12.836,43.893,37.121c6.189,17.726,6.636,35.157,6.651,35.89
	c0.04,1.875-1.446,3.428-3.321,3.469C298.538,136.967,298.514,136.967,298.488,136.967z"/>
<path fill-rule="evenodd" clip-rule="evenodd" fill="#FFFFFF" d="M229.451,234.794c0.836-1.096,1.697-2.201,2.536-3.323
	c10.066-13.465,20.131-26.932,30.191-40.401c7.603-10.179,15.214-20.353,22.783-30.555c1.787-2.408,4.082-3.885,7.009-4.432
	c5.203-0.973,11.063,2.601,12.054,8.459c0.613,3.617-0.593,6.553-2.69,9.341c-7.097,9.437-14.169,18.893-21.239,28.35
	c-13.601,18.192-27.236,36.358-40.756,54.61c-3.272,4.418-8.175,5.55-12.447,4.143c-1.669-0.55-3.053-1.565-4.282-2.793
	c-7.834-7.828-15.627-15.693-23.507-23.474c-3.961-3.912-4.361-10.085-1.097-14.243c3.491-4.445,10.138-5.412,14.615-1.969
	c0.768,0.59,1.473,1.27,2.16,1.955c4.294,4.277,8.57,8.571,12.867,12.845C228.165,233.82,228.573,234.481,229.451,234.794z"/>
</svg>
